<svg width="152" height="40" viewBox="0 0 152 40" fill="none" xmlns="http://www.w3.org/2000/svg">
<g id="Logo">
<g id="Flash">
<path id="Vector 2 (Stroke)" d="M28.4407 0L0.5 23.1397H19.3661L11.8177 39.9763L40.0053 16.9908H20.3558L28.4407 0Z" fill="#3182CE"/>
<path id="Vector 2 (Stroke)_2" d="M28.4407 0L15.8199 18.6819L34.5727 18.6819L11.8177 39.9763L40.0053 16.9908L20.3558 16.9908L28.4407 0Z" fill="#2B6CB0"/>
<path id="Vector 2 (Stroke)_3" d="M28.4407 0L0.5 23.1397H19.3661L11.8177 39.9763L23.808 21.4486H6.07848L28.4407 0Z" fill="#4299E1"/>
</g>
<g id="ZEUS UI">
<path d="M107.196 28.3401C105.952 28.3401 104.811 28.2311 103.772 28.0129C102.733 27.7803 101.789 27.4749 100.94 27.0968C100.106 26.7041 99.3455 26.2606 98.6577 25.7661L100.37 22.7995C101.57 23.6429 102.777 24.261 103.991 24.6536C105.206 25.0317 106.369 25.2208 107.481 25.2208C107.964 25.2208 108.469 25.1772 108.996 25.0899C109.523 24.9881 109.962 24.8209 110.313 24.5882C110.679 24.341 110.861 24.0065 110.861 23.5848C110.861 23.3375 110.774 23.1339 110.598 22.974C110.437 22.7995 110.21 22.6613 109.918 22.5595C109.625 22.4577 109.281 22.3777 108.886 22.3196C108.506 22.2469 108.089 22.196 107.635 22.1669C107.196 22.1232 106.75 22.0796 106.296 22.036C105.272 21.9342 104.343 21.767 103.509 21.5343C102.674 21.3016 101.957 21.0035 101.357 20.6399C100.772 20.2618 100.319 19.8037 99.9966 19.2657C99.6747 18.7276 99.5138 18.1095 99.5138 17.4115C99.5138 16.6262 99.704 15.9282 100.084 15.3174C100.48 14.7066 101.028 14.1976 101.731 13.7904C102.433 13.3687 103.238 13.0488 104.145 12.8306C105.067 12.6125 106.055 12.5034 107.108 12.5034C108.206 12.5034 109.193 12.6052 110.071 12.8088C110.964 12.9979 111.747 13.2596 112.42 13.5941C113.108 13.9286 113.678 14.2921 114.132 14.6848L112.332 17.2588C111.878 16.9243 111.352 16.6407 110.752 16.4081C110.166 16.1608 109.545 15.9718 108.886 15.8409C108.242 15.71 107.598 15.6446 106.955 15.6446C106.296 15.6446 105.703 15.7028 105.177 15.8191C104.665 15.9209 104.255 16.0809 103.947 16.299C103.655 16.5026 103.509 16.7716 103.509 17.1061C103.509 17.4115 103.633 17.666 103.882 17.8696C104.145 18.0586 104.482 18.2113 104.891 18.3277C105.301 18.4295 105.755 18.5094 106.252 18.5676C106.75 18.6258 107.233 18.684 107.701 18.7421C108.579 18.8294 109.442 18.9457 110.291 19.0911C111.139 19.222 111.9 19.4402 112.574 19.7456C113.261 20.0364 113.81 20.4581 114.22 21.0108C114.629 21.5488 114.834 22.2832 114.834 23.2139C114.834 24.2901 114.505 25.2135 113.847 25.9843C113.188 26.7405 112.281 27.3222 111.125 27.7294C109.984 28.1365 108.674 28.3401 107.196 28.3401Z" fill="url(#paint0_linear_1_164338)"/>
<path d="M139.544 28.2992V24.9808H143.671V16.1245H139.544L139.471 12.9251H151.551V16.1245H147.402V24.9808H151.551V28.2992H139.544Z" fill="url(#paint1_linear_1_164338)"/>
<path d="M45.6157 25.7931L45.6571 28.2992H61.1313L61.0899 24.9642H51.429L60.8484 15.4316V12.9251H47.1142V16.4351H54.8812L45.6157 25.7931Z" fill="url(#paint2_linear_1_164338)"/>
<path d="M64.2409 28.2992V12.9251H78.0249V16.0154H67.8625V18.8512H77.0372V21.8615H67.8625V25.0951H78.2444V28.2992H64.2409Z" fill="url(#paint3_linear_1_164338)"/>
<path d="M130.059 28.2529C128.42 28.2529 126.993 27.933 125.779 27.2931C124.564 26.6532 123.621 25.7734 122.947 24.6536C122.274 23.5339 121.938 22.1669 121.938 20.7272V12.9251H125.713V20.7272C125.713 26.0001 134.515 26.0001 134.515 20.7272V12.9251H138.158V20.7272C138.158 22.1669 137.822 23.5339 137.148 24.6536C136.475 25.7734 135.532 26.6532 134.317 27.2931C133.103 27.933 131.683 28.2529 130.059 28.2529Z" fill="url(#paint4_linear_1_164338)"/>
<path d="M80.9503 20.7272V12.9251H84.7256V20.7272C84.7256 26.1743 93.5272 26.1743 93.5272 20.7272V12.9251H97.1707V20.7272C97.1707 30.8843 80.9503 30.8162 80.9503 20.7272Z" fill="url(#paint5_linear_1_164338)"/>
</g>
</g>
<defs>
<linearGradient id="paint0_linear_1_164338" x1="203.874" y1="19.9646" x2="14.2021" y2="19.9646" gradientUnits="userSpaceOnUse">
<stop stop-color="#0C3C46"/>
<stop offset="1" stop-color="#124B56"/>
</linearGradient>
<linearGradient id="paint1_linear_1_164338" x1="203.874" y1="19.9646" x2="14.2021" y2="19.9646" gradientUnits="userSpaceOnUse">
<stop stop-color="#0C3C46"/>
<stop offset="1" stop-color="#124B56"/>
</linearGradient>
<linearGradient id="paint2_linear_1_164338" x1="203.874" y1="19.9646" x2="14.2021" y2="19.9646" gradientUnits="userSpaceOnUse">
<stop stop-color="#0C3C46"/>
<stop offset="1" stop-color="#124B56"/>
</linearGradient>
<linearGradient id="paint3_linear_1_164338" x1="203.874" y1="19.9646" x2="14.2021" y2="19.9646" gradientUnits="userSpaceOnUse">
<stop stop-color="#0C3C46"/>
<stop offset="1" stop-color="#124B56"/>
</linearGradient>
<linearGradient id="paint4_linear_1_164338" x1="203.874" y1="19.9646" x2="14.2021" y2="19.9646" gradientUnits="userSpaceOnUse">
<stop stop-color="#0C3C46"/>
<stop offset="1" stop-color="#124B56"/>
</linearGradient>
<linearGradient id="paint5_linear_1_164338" x1="203.874" y1="19.9646" x2="14.2021" y2="19.9646" gradientUnits="userSpaceOnUse">
<stop stop-color="#0C3C46"/>
<stop offset="1" stop-color="#124B56"/>
</linearGradient>
</defs>
</svg>
